<?xml version="1.0" encoding="UTF-8"?>
<!DOCTYPE svg PUBLIC "-//W3C//DTD SVG 1.1//EN" "http://www.w3.org/Graphics/SVG/1.1/DTD/svg11.dtd">
<svg xmlns="http://www.w3.org/2000/svg" version="1.1" width="520px" height="520px" style="shape-rendering:geometricPrecision; text-rendering:geometricPrecision; image-rendering:optimizeQuality; fill-rule:evenodd; clip-rule:evenodd" xmlns:xlink="http://www.w3.org/1999/xlink">
<g><path style="opacity:0.997" fill="#f9f9f9" d="M 179.5,104.5 C 184.462,105.31 188.462,107.643 191.5,111.5C 191.263,115.41 192.096,119.077 194,122.5C 194.499,127.155 194.666,131.821 194.5,136.5C 190.606,145.989 183.44,150.655 173,150.5C 163.885,150.199 157.052,146.199 152.5,138.5C 153.097,138.265 153.43,137.765 153.5,137C 150.185,127.582 151.185,118.748 156.5,110.5C 157.585,108.413 159.251,107.08 161.5,106.5C 167.346,104.845 173.346,104.178 179.5,104.5 Z"/></g>
<g><path style="opacity:0.997" fill="#fafafa" d="M 465.5,118.5 C 468.99,128.869 466.657,137.869 458.5,145.5C 457.378,146.63 456.044,147.297 454.5,147.5C 447.715,148.768 440.715,148.768 433.5,147.5C 430.943,143.934 427.943,140.601 424.5,137.5C 421.455,127.177 423.122,117.677 429.5,109C 430.793,108.51 432.127,108.343 433.5,108.5C 433.5,107.5 433.5,106.5 433.5,105.5C 438.14,104.603 442.806,104.436 447.5,105C 451.631,106.881 455.631,109.047 459.5,111.5C 461.612,113.929 463.612,116.262 465.5,118.5 Z"/></g>
<g><path style="opacity:0.549" fill="#abaaab" d="M 179.5,104.5 C 173.346,104.178 167.346,104.845 161.5,106.5C 167.173,102.329 173.173,101.663 179.5,104.5 Z"/></g>
<g><path style="opacity:0.251" fill="#cccaca" d="M 465.5,118.5 C 463.612,116.262 461.612,113.929 459.5,111.5C 455.631,109.047 451.631,106.881 447.5,105C 442.806,104.436 438.14,104.603 433.5,105.5C 444.802,100.781 454.636,103.115 463,112.5C 464.122,114.407 464.955,116.407 465.5,118.5 Z"/></g>
<g><path style="opacity:0.565" fill="#c9c7c8" d="M 191.5,111.5 C 196.82,119.347 197.82,127.68 194.5,136.5C 194.666,131.821 194.499,127.155 194,122.5C 192.096,119.077 191.263,115.41 191.5,111.5 Z"/></g>
<g><path style="opacity:0.725" fill="#cecdcd" d="M 433.5,105.5 C 433.5,106.5 433.5,107.5 433.5,108.5C 432.127,108.343 430.793,108.51 429.5,109C 423.122,117.677 421.455,127.177 424.5,137.5C 427.943,140.601 430.943,143.934 433.5,147.5C 424.396,143.654 420.062,136.654 420.5,126.5C 420.542,116.734 424.875,109.734 433.5,105.5 Z"/></g>
<g><path style="opacity:0.998" fill="#fbfbfb" d="M 67.5,138.5 C 67.6454,143.562 68.312,148.562 69.5,153.5C 69.2741,155.189 68.9408,156.855 68.5,158.5C 70.6188,162.004 72.2855,165.671 73.5,169.5C 73.5,170.167 73.5,170.833 73.5,171.5C 74.3244,177.543 74.3244,183.543 73.5,189.5C 74.325,190.386 75.325,190.719 76.5,190.5C 78.0833,197.433 79.5833,204.433 81,211.5C 81.3826,212.056 81.8826,212.389 82.5,212.5C 82.8333,213.167 83.1667,213.833 83.5,214.5C 82.8418,215.793 82.5085,217.293 82.5,219C 83.2666,229.364 85.0999,239.53 88,249.5C 88.5,245 89,240.5 89.5,236C 89.4915,234.293 89.1582,232.793 88.5,231.5C 89.1098,230.609 89.4431,229.609 89.5,228.5C 90.1174,228.389 90.6174,228.056 91,227.5C 91.3333,224.833 91.6667,222.167 92,219.5C 93.5847,215.982 95.0847,212.482 96.5,209C 95.5333,204.599 95.2,200.099 95.5,195.5C 97.6783,190.835 99.1783,185.835 100,180.5C 101.561,170.398 103.061,160.398 104.5,150.5C 105.342,143.789 106.509,137.122 108,130.5C 108.816,129.177 109.983,128.511 111.5,128.5C 111.918,129.222 112.584,129.722 113.5,130C 125.543,129.85 137.21,130.684 148.5,132.5C 148.5,132.833 148.5,133.167 148.5,133.5C 146.533,133.739 144.699,133.406 143,132.5C 142.308,133.025 141.808,133.692 141.5,134.5C 142.246,135.736 142.579,137.07 142.5,138.5C 141.167,138.5 139.833,138.5 138.5,138.5C 138.623,141.588 137.623,144.255 135.5,146.5C 134.808,145.975 134.308,145.308 134,144.5C 133.376,146.464 133.876,148.131 135.5,149.5C 133.576,155.364 131.576,161.197 129.5,167C 130.031,168.718 130.698,168.885 131.5,167.5C 138.726,167.709 146.059,167.709 153.5,167.5C 153.97,168.693 154.97,169.36 156.5,169.5C 165.585,170.075 173.918,172.908 181.5,178C 184.078,180.074 186.078,182.574 187.5,185.5C 188.417,186.127 189.417,186.461 190.5,186.5C 194.516,191.706 196.683,197.706 197,204.5C 197.041,238.867 197.708,273.2 199,307.5C 204.796,318.821 213.629,322.155 225.5,317.5C 230.041,315.798 233.541,312.798 236,308.5C 236.014,310.471 235.681,312.471 235,314.5C 233.989,315.337 232.822,315.67 231.5,315.5C 231.421,316.93 231.754,318.264 232.5,319.5C 228.906,320.875 227.572,323.542 228.5,327.5C 225.71,331.628 222.043,334.628 217.5,336.5C 202.512,341.801 187.512,341.801 172.5,336.5C 164.778,332.444 159.111,326.444 155.5,318.5C 156.043,318.44 156.376,318.107 156.5,317.5C 154.462,313.756 153.295,309.756 153,305.5C 152.617,304.944 152.117,304.611 151.5,304.5C 150.833,304.5 150.5,304.167 150.5,303.5C 151.833,287.347 152.5,270.847 152.5,254C 152.333,237.5 152.167,221 152,204.5C 150.327,199.948 149.16,195.281 148.5,190.5C 147.115,189.449 146.115,188.116 145.5,186.5C 140.8,185.299 137.966,182.299 137,177.5C 135.097,177.694 133.263,177.694 131.5,177.5C 130.614,176.675 130.281,175.675 130.5,174.5C 128.61,174.297 127.11,174.963 126,176.5C 123.634,183.469 122.134,190.635 121.5,198C 121.528,199.07 121.861,199.903 122.5,200.5C 122.167,201.167 121.833,201.833 121.5,202.5C 120.288,203.23 119.288,204.23 118.5,205.5C 117.628,213.607 116.295,221.607 114.5,229.5C 114.511,231.045 114.844,232.378 115.5,233.5C 114.766,234.708 114.433,236.041 114.5,237.5C 110.35,244.482 108.517,252.148 109,260.5C 108.333,273.167 108.333,285.833 109,298.5C 109.383,299.056 109.883,299.389 110.5,299.5C 110.228,314.294 116.228,325.628 128.5,333.5C 128.511,335.017 129.177,336.184 130.5,337C 133.06,337.384 135.394,338.217 137.5,339.5C 124.006,340.661 110.34,340.827 96.5,340C 92.541,338.506 88.541,337.006 84.5,335.5C 83.6143,334.675 83.281,333.675 83.5,332.5C 80.8915,332.6 78.5582,331.933 76.5,330.5C 74.9128,327.732 73.0795,325.065 71,322.5C 70.2391,317.837 69.0725,313.337 67.5,309C 66.7433,291.177 66.2433,273.344 66,255.5C 63.8992,249.046 62.8992,242.379 63,235.5C 61.9179,233.382 60.7512,231.382 59.5,229.5C 59.5,229.167 59.5,228.833 59.5,228.5C 59.6658,223.821 59.4992,219.155 59,214.5C 58.2532,210.138 57.0865,205.971 55.5,202C 55.8958,199.46 56.0625,196.96 56,194.5C 55.586,194.957 55.086,195.291 54.5,195.5C 52.3622,190.287 50.5289,184.954 49,179.5C 48.5831,178.244 47.7498,177.577 46.5,177.5C 46.4431,176.391 46.1098,175.391 45.5,174.5C 46.1394,167.678 44.8061,161.011 41.5,154.5C 40.6431,153.575 39.6431,152.908 38.5,152.5C 35.1937,144.59 30.3603,137.59 24,131.5C 23.5439,130.256 24.0439,129.423 25.5,129C 38.5,128.333 51.5,128.333 64.5,129C 66.7974,131.67 67.7974,134.836 67.5,138.5 Z"/></g>
<g><path style="opacity:0.086" fill="#c3c1c2" d="M 156.5,110.5 C 151.185,118.748 150.185,127.582 153.5,137C 153.43,137.765 153.097,138.265 152.5,138.5C 151.167,136.5 149.833,134.5 148.5,132.5C 137.21,130.684 125.543,129.85 113.5,130C 112.584,129.722 111.918,129.222 111.5,128.5C 124.08,128.178 136.58,128.511 149,129.5C 149.208,125.082 149.874,120.749 151,116.5C 152.161,113.815 153.994,111.815 156.5,110.5 Z"/></g>
<g><path style="opacity:0.955" fill="#cfcecf" d="M 148.5,133.5 C 140.195,143.444 134.528,154.778 131.5,167.5C 130.698,168.885 130.031,168.718 129.5,167C 131.576,161.197 133.576,155.364 135.5,149.5C 133.876,148.131 133.376,146.464 134,144.5C 134.308,145.308 134.808,145.975 135.5,146.5C 137.623,144.255 138.623,141.588 138.5,138.5C 139.833,138.5 141.167,138.5 142.5,138.5C 142.579,137.07 142.246,135.736 141.5,134.5C 141.808,133.692 142.308,133.025 143,132.5C 144.699,133.406 146.533,133.739 148.5,133.5 Z"/></g>
<g><path style="opacity:0.525" fill="#c1bdbe" d="M 454.5,147.5 C 447.5,151.5 440.5,151.5 433.5,147.5C 440.715,148.768 447.715,148.768 454.5,147.5 Z"/></g>
<g><path style="opacity:0.549" fill="#cdcccc" d="M 38.5,152.5 C 39.6431,152.908 40.6431,153.575 41.5,154.5C 44.8061,161.011 46.1394,167.678 45.5,174.5C 43.1667,167.167 40.8333,159.833 38.5,152.5 Z"/></g>
<g><path style="opacity:0.961" fill="#bfbdbc" d="M 67.5,138.5 C 69.8062,148.652 71.8062,158.985 73.5,169.5C 72.2855,165.671 70.6188,162.004 68.5,158.5C 68.9408,156.855 69.2741,155.189 69.5,153.5C 68.312,148.562 67.6454,143.562 67.5,138.5 Z"/></g>
<g><path style="opacity:0.396" fill="#cdc7c5" d="M 153.5,167.5 C 169.399,167.281 181.733,173.614 190.5,186.5C 189.417,186.461 188.417,186.127 187.5,185.5C 186.078,182.574 184.078,180.074 181.5,178C 173.918,172.908 165.585,170.075 156.5,169.5C 154.97,169.36 153.97,168.693 153.5,167.5 Z"/></g>
<g><path style="opacity:0.676" fill="#dfdedd" d="M 392.5,167.5 C 406.597,166.936 420.597,167.77 434.5,170C 441.7,172.249 447.367,176.416 451.5,182.5C 449.688,182.229 448.022,181.562 446.5,180.5C 445.266,178.448 443.6,176.781 441.5,175.5C 437.184,172.845 432.517,171.011 427.5,170C 414.471,169.231 401.471,169.564 388.5,171C 391.983,172.988 394.983,175.488 397.5,178.5C 394.702,177.35 392.035,176.017 389.5,174.5C 385.742,172.476 381.742,170.976 377.5,170C 382.507,168.885 387.507,168.052 392.5,167.5 Z"/></g>
<g><path style="opacity:0.994" fill="#fcfbfb" d="M 260.5,171.5 C 260.414,172.496 260.748,173.329 261.5,174C 266.356,175.676 269.856,178.843 272,183.5C 274.371,185.054 276.537,186.721 278.5,188.5C 280.592,191.088 281.925,194.088 282.5,197.5C 282.331,199.912 282.997,202.079 284.5,204C 283.873,206.135 283.373,208.302 283,210.5C 282.333,243.5 282.333,276.5 283,309.5C 284.908,312.215 286.241,315.215 287,318.5C 287.816,319.823 288.983,320.489 290.5,320.5C 292.787,324.122 295.453,327.455 298.5,330.5C 299.254,333.091 300.921,334.924 303.5,336C 305.927,337.591 308.593,338.425 311.5,338.5C 311.611,339.117 311.944,339.617 312.5,340C 298.167,340.667 283.833,340.667 269.5,340C 265.756,338.983 262.089,337.816 258.5,336.5C 248.709,332.041 242.043,324.708 238.5,314.5C 238.813,311.428 238.146,308.595 236.5,306C 237.287,303.901 237.62,301.734 237.5,299.5C 238.167,283.337 238.5,267.003 238.5,250.5C 238.499,233.819 237.833,217.486 236.5,201.5C 231.755,184.091 220.421,174.091 202.5,171.5C 201.167,170.5 201.167,169.5 202.5,168.5C 216.788,167.351 231.122,167.184 245.5,168C 250.745,168.347 255.745,169.514 260.5,171.5 Z"/></g>
<g><path style="opacity:0.997" fill="#fbfbfb" d="M 356.5,178.5 C 359.605,181.275 361.938,184.608 363.5,188.5C 365.575,193.319 367.075,198.319 368,203.5C 368.851,236.83 369.517,270.163 370,303.5C 370.333,305.833 370.667,308.167 371,310.5C 371.383,311.056 371.883,311.389 372.5,311.5C 376.265,323.271 383.932,331.605 395.5,336.5C 397.181,331.74 398.847,327.074 400.5,322.5C 401.694,319.109 403.194,315.775 405,312.5C 408.935,294.22 412.435,275.886 415.5,257.5C 416.608,240.858 416.775,224.192 416,207.5C 415.878,205.563 415.045,204.23 413.5,203.5C 412.568,198.207 410.735,193.207 408,188.5C 404.604,184.935 401.104,181.602 397.5,178.5C 394.983,175.488 391.983,172.988 388.5,171C 401.471,169.564 414.471,169.231 427.5,170C 432.517,171.011 437.184,172.845 441.5,175.5C 443.6,176.781 445.266,178.448 446.5,180.5C 448.022,181.562 449.688,182.229 451.5,182.5C 457.247,188.204 460.413,195.204 461,203.5C 461.167,221.857 461.834,240.19 463,258.5C 464.26,267.636 466.094,276.636 468.5,285.5C 470.302,302.918 473.802,320.252 479,337.5C 479.417,338.756 480.25,339.423 481.5,339.5C 484.888,347.97 488.055,356.637 491,365.5C 493.916,370.42 497.582,374.753 502,378.5C 502.667,379.5 502.667,380.5 502,381.5C 488.458,382.594 474.625,382.76 460.5,382C 458.893,380.951 458.227,379.451 458.5,377.5C 458.666,372.821 458.499,368.155 458,363.5C 456.103,356.924 454.603,350.257 453.5,343.5C 454.87,340.539 454.537,337.872 452.5,335.5C 451.731,329.73 450.565,324.063 449,318.5C 448.617,317.944 448.117,317.611 447.5,317.5C 445.514,307.557 443.848,297.557 442.5,287.5C 442.603,284.781 442.269,282.115 441.5,279.5C 441.253,278.287 440.586,277.62 439.5,277.5C 439.322,274.784 438.822,272.117 438,269.5C 437.014,275.886 435.847,282.219 434.5,288.5C 428.454,304.106 425.454,320.439 425.5,337.5C 423.955,338.23 423.122,339.563 423,341.5C 421.607,347.305 421.441,352.971 422.5,358.5C 421.766,359.708 421.433,361.041 421.5,362.5C 420.25,362.577 419.417,363.244 419,364.5C 418.1,369.501 417.266,374.501 416.5,379.5C 404.162,379.667 391.829,379.5 379.5,379C 383.178,375.311 384.844,371.144 384.5,366.5C 387.199,361.101 389.866,355.768 392.5,350.5C 394.365,348.487 396.032,346.154 397.5,343.5C 397.167,342.833 396.833,342.167 396.5,341.5C 384.18,340.667 371.847,340.167 359.5,340C 355.011,339.295 350.678,338.128 346.5,336.5C 342.98,335.647 340.313,333.647 338.5,330.5C 333.448,324.384 329.448,317.718 326.5,310.5C 325.833,310.5 325.5,310.167 325.5,309.5C 326.147,308.726 326.48,307.726 326.5,306.5C 325.854,273.68 325.188,241.014 324.5,208.5C 322.931,202.372 319.597,197.372 314.5,193.5C 314.586,192.504 314.252,191.671 313.5,191C 306.061,188.858 298.727,189.191 291.5,192C 291.957,192.414 292.291,192.914 292.5,193.5C 291.167,194.167 289.833,194.833 288.5,195.5C 289.127,196.417 289.461,197.417 289.5,198.5C 289.672,199.492 289.338,200.158 288.5,200.5C 287.671,199.668 286.838,200.001 286,201.5C 285.13,200.892 284.63,200.059 284.5,199C 285.569,195.859 287.569,193.526 290.5,192C 290.043,191.586 289.709,191.086 289.5,190.5C 291.203,187.094 292.87,183.76 294.5,180.5C 298.139,174.551 303.473,170.885 310.5,169.5C 319.828,168.442 329.162,168.609 338.5,170C 344.483,172.935 350.483,175.768 356.5,178.5 Z"/></g>
<g><path style="opacity:0.182" fill="#929292" d="M 392.5,167.5 C 387.507,168.052 382.507,168.885 377.5,170C 381.742,170.976 385.742,172.476 389.5,174.5C 385.494,173.778 381.494,172.945 377.5,172C 375.606,170.921 375.273,169.587 376.5,168C 381.823,167.501 387.156,167.334 392.5,167.5 Z"/></g>
<g><path style="opacity:0.514" fill="#cac9c9" d="M 356.5,178.5 C 350.483,175.768 344.483,172.935 338.5,170C 329.162,168.609 319.828,168.442 310.5,169.5C 323.346,165.347 336.013,166.18 348.5,172C 351.787,173.467 354.454,175.634 356.5,178.5 Z"/></g>
<g><path style="opacity:0.298" fill="#c4c0c2" d="M 104.5,150.5 C 103.061,160.398 101.561,170.398 100,180.5C 99.1783,185.835 97.6783,190.835 95.5,195.5C 97.3689,180.155 100.369,165.155 104.5,150.5 Z"/></g>
<g><path style="opacity:0.933" fill="#c4c3c4" d="M 260.5,171.5 C 269.077,174.409 275.077,180.076 278.5,188.5C 276.537,186.721 274.371,185.054 272,183.5C 269.856,178.843 266.356,175.676 261.5,174C 260.748,173.329 260.414,172.496 260.5,171.5 Z"/></g>
<g><path style="opacity:0.941" fill="#c4c1bf" d="M 73.5,171.5 C 77.487,184.832 80.487,198.499 82.5,212.5C 81.8826,212.389 81.3826,212.056 81,211.5C 79.5833,204.433 78.0833,197.433 76.5,190.5C 75.325,190.719 74.325,190.386 73.5,189.5C 74.3244,183.543 74.3244,177.543 73.5,171.5 Z"/></g>
<g><path style="opacity:0.478" fill="#cac9c8" d="M 314.5,193.5 C 304.987,189.725 296.653,191.392 289.5,198.5C 289.461,197.417 289.127,196.417 288.5,195.5C 289.833,194.833 291.167,194.167 292.5,193.5C 292.291,192.914 291.957,192.414 291.5,192C 298.727,189.191 306.061,188.858 313.5,191C 314.252,191.671 314.586,192.504 314.5,193.5 Z"/></g>
<g><path style="opacity:0.638" fill="#c2c0c1" d="M 95.5,195.5 C 95.2,200.099 95.5333,204.599 96.5,209C 95.0847,212.482 93.5847,215.982 92,219.5C 91.6667,222.167 91.3333,224.833 91,227.5C 90.6174,228.056 90.1174,228.389 89.5,228.5C 91.0123,217.283 93.0123,206.283 95.5,195.5 Z"/></g>
<g><path style="opacity:0.692" fill="#bfbebd" d="M 46.5,177.5 C 47.7498,177.577 48.5831,178.244 49,179.5C 50.5289,184.954 52.3622,190.287 54.5,195.5C 55.086,195.291 55.586,194.957 56,194.5C 56.0625,196.96 55.8958,199.46 55.5,202C 57.0865,205.971 58.2532,210.138 59,214.5C 59.4992,219.155 59.6658,223.821 59.5,228.5C 56.069,211.371 51.7356,194.371 46.5,177.5 Z"/></g>
<g><path style="opacity:0.357" fill="#b9b8b8" d="M 121.5,202.5 C 119.392,212.813 117.392,223.146 115.5,233.5C 114.844,232.378 114.511,231.045 114.5,229.5C 116.295,221.607 117.628,213.607 118.5,205.5C 119.288,204.23 120.288,203.23 121.5,202.5 Z"/></g>
<g><path style="opacity:0.192" fill="#c3c3c3" d="M 236.5,201.5 C 237.833,217.486 238.499,233.819 238.5,250.5C 238.5,267.003 238.167,283.337 237.5,299.5C 237.805,266.809 237.471,234.142 236.5,201.5 Z"/></g>
<g><path style="opacity:0.108" fill="#c4c1c1" d="M 83.5,214.5 C 84.4296,222.938 85.9296,231.271 88,239.5C 88.4974,236.854 88.6641,234.187 88.5,231.5C 89.1582,232.793 89.4915,234.293 89.5,236C 89,240.5 88.5,245 88,249.5C 85.0999,239.53 83.2666,229.364 82.5,219C 82.5085,217.293 82.8418,215.793 83.5,214.5 Z"/></g>
<g><path style="opacity:0.016" fill="#8a8889" d="M 413.5,203.5 C 415.045,204.23 415.878,205.563 416,207.5C 416.775,224.192 416.608,240.858 415.5,257.5C 414.833,257.5 414.167,257.5 413.5,257.5C 414.148,255.914 414.648,254.247 415,252.5C 415.667,237.833 415.667,223.167 415,208.5C 414.648,206.753 414.148,205.086 413.5,203.5 Z"/></g>
<g><path style="opacity:0.347" fill="#d7d5d6" d="M 150.5,303.5 C 150.667,272.165 150.5,240.832 150,209.5C 149.684,194.509 142.684,184.176 129,178.5C 128.055,178.905 127.388,179.572 127,180.5C 125.18,187.111 123.68,193.778 122.5,200.5C 121.861,199.903 121.528,199.07 121.5,198C 122.134,190.635 123.634,183.469 126,176.5C 127.11,174.963 128.61,174.297 130.5,174.5C 130.281,175.675 130.614,176.675 131.5,177.5C 133.263,177.694 135.097,177.694 137,177.5C 137.966,182.299 140.8,185.299 145.5,186.5C 146.115,188.116 147.115,189.449 148.5,190.5C 149.16,195.281 150.327,199.948 152,204.5C 152.167,221 152.333,237.5 152.5,254C 152.5,270.847 151.833,287.347 150.5,303.5 Z"/></g>
<g><path style="opacity:0.114" fill="#bcbbbb" d="M 324.5,208.5 C 325.188,241.014 325.854,273.68 326.5,306.5C 326.48,307.726 326.147,308.726 325.5,309.5C 324.521,275.864 324.187,242.198 324.5,208.5 Z"/></g>
<g><path style="opacity:0.455" fill="#c4c4c3" d="M 114.5,237.5 C 111.757,258.053 110.424,278.719 110.5,299.5C 109.883,299.389 109.383,299.056 109,298.5C 108.333,285.833 108.333,273.167 109,260.5C 108.517,252.148 110.35,244.482 114.5,237.5 Z"/></g>
<g><path style="opacity:0.579" fill="#d4d1d2" d="M 59.5,229.5 C 60.7512,231.382 61.9179,233.382 63,235.5C 62.8992,242.379 63.8992,249.046 66,255.5C 66.2433,273.344 66.7433,291.177 67.5,309C 69.0725,313.337 70.2391,317.837 71,322.5C 73.0795,325.065 74.9128,327.732 76.5,330.5C 69.8382,324.851 66.0049,317.517 65,308.5C 65.7332,281.957 63.8999,255.623 59.5,229.5 Z"/></g>
<g><path style="opacity:0.169" fill="#d2cace" d="M 363.5,188.5 C 366.294,190.819 368.128,193.819 369,197.5C 369.559,201.186 370.226,204.853 371,208.5C 371.201,242.852 371.701,277.185 372.5,311.5C 371.883,311.389 371.383,311.056 371,310.5C 370.667,308.167 370.333,305.833 370,303.5C 369.517,270.163 368.851,236.83 368,203.5C 367.075,198.319 365.575,193.319 363.5,188.5 Z"/></g>
<g><path style="opacity:0.216" fill="#929292" d="M 439.5,277.5 C 440.586,277.62 441.253,278.287 441.5,279.5C 442.269,282.115 442.603,284.781 442.5,287.5C 441.21,284.358 440.21,281.025 439.5,277.5 Z"/></g>
<g><path style="opacity:0.173" fill="#bebbbb" d="M 294.5,180.5 C 292.87,183.76 291.203,187.094 289.5,190.5C 289.709,191.086 290.043,191.586 290.5,192C 287.569,193.526 285.569,195.859 284.5,199C 284.63,200.059 285.13,200.892 286,201.5C 286.838,200.001 287.671,199.668 288.5,200.5C 286.472,203.897 284.972,207.564 284,211.5C 283.333,242.167 283.333,272.833 284,303.5C 285.076,309.641 287.243,315.307 290.5,320.5C 288.983,320.489 287.816,319.823 287,318.5C 286.241,315.215 284.908,312.215 283,309.5C 282.333,276.5 282.333,243.5 283,210.5C 283.373,208.302 283.873,206.135 284.5,204C 282.997,202.079 282.331,199.912 282.5,197.5C 286.254,191.658 290.254,185.991 294.5,180.5 Z"/></g>
<g><path style="opacity:0.328" fill="#cfcecf" d="M 413.5,257.5 C 414.167,257.5 414.833,257.5 415.5,257.5C 412.435,275.886 408.935,294.22 405,312.5C 403.194,315.775 401.694,319.109 400.5,322.5C 405.373,300.927 409.706,279.261 413.5,257.5 Z"/></g>
<g><path style="opacity:0.4" fill="#bcbbbb" d="M 151.5,304.5 C 152.117,304.611 152.617,304.944 153,305.5C 153.295,309.756 154.462,313.756 156.5,317.5C 156.376,318.107 156.043,318.44 155.5,318.5C 152.447,314.376 151.114,309.709 151.5,304.5 Z"/></g>
<g><path style="opacity:0.98" fill="#c0bdbf" d="M 237.5,299.5 C 237.62,301.734 237.287,303.901 236.5,306C 238.146,308.595 238.813,311.428 238.5,314.5C 235.222,318.791 231.888,323.124 228.5,327.5C 227.572,323.542 228.906,320.875 232.5,319.5C 231.754,318.264 231.421,316.93 231.5,315.5C 232.822,315.67 233.989,315.337 235,314.5C 235.681,312.471 236.014,310.471 236,308.5C 233.541,312.798 230.041,315.798 225.5,317.5C 231.488,312.841 235.488,306.841 237.5,299.5 Z"/></g>
<g><path style="opacity:0.784" fill="#d6d4d5" d="M 434.5,288.5 C 432.118,305.065 429.118,321.398 425.5,337.5C 425.454,320.439 428.454,304.106 434.5,288.5 Z"/></g>
<g><path style="opacity:0.694" fill="#d3d2d2" d="M 468.5,285.5 C 473.086,303.43 477.42,321.43 481.5,339.5C 480.25,339.423 479.417,338.756 479,337.5C 473.802,320.252 470.302,302.918 468.5,285.5 Z"/></g>
<g><path style="opacity:0.051" fill="#bfbebe" d="M 326.5,310.5 C 329.448,317.718 333.448,324.384 338.5,330.5C 335.236,329.073 332.736,326.739 331,323.5C 328.803,319.41 327.303,315.076 326.5,310.5 Z"/></g>
<g><path style="opacity:0.157" fill="#bbbaba" d="M 298.5,330.5 C 303.037,332.93 307.37,335.597 311.5,338.5C 308.593,338.425 305.927,337.591 303.5,336C 300.921,334.924 299.254,333.091 298.5,330.5 Z"/></g>
<g><path style="opacity:0.792" fill="#bfbebe" d="M 447.5,317.5 C 448.117,317.611 448.617,317.944 449,318.5C 450.565,324.063 451.731,329.73 452.5,335.5C 454.537,337.872 454.87,340.539 453.5,343.5C 454.603,350.257 456.103,356.924 458,363.5C 458.499,368.155 458.666,372.821 458.5,377.5C 454.205,357.74 450.538,337.74 447.5,317.5 Z"/></g>
<g><path style="opacity:0.336" fill="#c8c6c6" d="M 76.5,330.5 C 78.5582,331.933 80.8915,332.6 83.5,332.5C 83.281,333.675 83.6143,334.675 84.5,335.5C 88.541,337.006 92.541,338.506 96.5,340C 110.34,340.827 124.006,340.661 137.5,339.5C 138.043,339.56 138.376,339.893 138.5,340.5C 137.398,341.176 136.398,341.842 135.5,342.5C 121.449,342.909 107.449,342.409 93.5,341C 86.7958,338.991 81.1291,335.491 76.5,330.5 Z"/></g>
<g><path style="opacity:0.169" fill="#b9b5b4" d="M 172.5,336.5 C 187.512,341.801 202.512,341.801 217.5,336.5C 215.572,338.474 213.239,339.974 210.5,341C 200.839,342.964 191.173,342.964 181.5,341C 178.16,339.997 175.16,338.497 172.5,336.5 Z"/></g>
<g><path style="opacity:0.333" fill="#c8c6c5" d="M 258.5,336.5 C 262.089,337.816 265.756,338.983 269.5,340C 283.833,340.667 298.167,340.667 312.5,340C 311.944,339.617 311.611,339.117 311.5,338.5C 314.588,338.197 316.254,339.53 316.5,342.5C 315.07,342.421 313.736,342.754 312.5,343.5C 298.545,342.684 284.545,342.184 270.5,342C 265.824,341.397 261.824,339.564 258.5,336.5 Z"/></g>
<g><path style="opacity:0.437" fill="#d8d6d5" d="M 346.5,336.5 C 350.678,338.128 355.011,339.295 359.5,340C 371.847,340.167 384.18,340.667 396.5,341.5C 396.833,342.167 397.167,342.833 397.5,343.5C 396.032,346.154 394.365,348.487 392.5,350.5C 392.232,348.901 392.566,347.568 393.5,346.5C 394.931,345.22 395.598,343.553 395.5,341.5C 393.379,341.325 391.379,341.659 389.5,342.5C 379.494,342.666 369.494,342.5 359.5,342C 354.445,341.601 350.111,339.768 346.5,336.5 Z"/></g>
<g><path style="opacity:0.078" fill="#979593" d="M 128.5,333.5 C 132.636,335.652 136.803,337.652 141,339.5C 140.836,343.17 139.003,344.17 135.5,342.5C 136.398,341.842 137.398,341.176 138.5,340.5C 138.376,339.893 138.043,339.56 137.5,339.5C 135.394,338.217 133.06,337.384 130.5,337C 129.177,336.184 128.511,335.017 128.5,333.5 Z"/></g>
<g><path style="opacity:0.078" fill="#838281" d="M 393.5,346.5 C 393.649,345.448 393.483,344.448 393,343.5C 391.791,343.347 390.625,343.014 389.5,342.5C 391.379,341.659 393.379,341.325 395.5,341.5C 395.598,343.553 394.931,345.22 393.5,346.5 Z"/></g>
<g><path style="opacity:0.457" fill="#c2c0c1" d="M 425.5,337.5 C 424.629,344.52 423.629,351.52 422.5,358.5C 421.441,352.971 421.607,347.305 423,341.5C 423.122,339.563 423.955,338.23 425.5,337.5 Z"/></g>
<g><path style="opacity:0.147" fill="#c4c3c3" d="M 102.5,364.5 C 93.8035,359.86 84.8035,359.36 75.5,363C 73.5588,365.454 71.2254,367.287 68.5,368.5C 77.2974,357.81 87.9641,355.644 100.5,362C 101.381,362.708 102.047,363.542 102.5,364.5 Z"/></g>
<g><path style="opacity:0.163" fill="#cccbcb" d="M 360.5,363.5 C 354.491,360.663 348.157,359.829 341.5,361C 337.491,362.293 333.824,364.127 330.5,366.5C 336.502,359.333 344.169,356.833 353.5,359C 356.547,359.516 358.88,361.016 360.5,363.5 Z"/></g>
<g><path style="opacity:0.997" fill="#fbfbfb" d="M 102.5,364.5 C 104.779,367.3 106.945,370.3 109,373.5C 111.578,383.94 109.078,392.773 101.5,400C 100.207,400.49 98.8734,400.657 97.5,400.5C 97.5,401.5 97.5,402.5 97.5,403.5C 88.327,406.982 79.6603,405.815 71.5,400C 69.9146,397.931 68.5813,395.764 67.5,393.5C 66.6423,389.376 65.9757,385.209 65.5,381C 65.5543,377.639 66.5543,374.639 68.5,372C 68.472,370.93 68.1386,370.097 67.5,369.5C 67.5,368.833 67.8333,368.5 68.5,368.5C 71.2254,367.287 73.5588,365.454 75.5,363C 84.8035,359.36 93.8035,359.86 102.5,364.5 Z"/></g>
<g><path style="opacity:0.998" fill="#fdfdfd" d="M 360.5,363.5 C 361.167,363.833 361.833,364.167 362.5,364.5C 362.996,367.493 364.496,369.826 367,371.5C 369.21,379.326 368.877,386.992 366,394.5C 365.333,395.833 364.667,395.833 364,394.5C 363.641,397.544 362.974,397.878 362,395.5C 361.667,396.5 361.333,397.5 361,398.5C 360,398.5 359,398.5 358,398.5C 357.274,401.288 355.44,402.788 352.5,403C 347.517,404.568 342.517,404.735 337.5,403.5C 336.508,403.672 335.842,403.338 335.5,402.5C 331.523,398.452 328.357,393.786 326,388.5C 325.173,384.459 325.34,380.459 326.5,376.5C 328.81,373.573 330.143,370.24 330.5,366.5C 333.824,364.127 337.491,362.293 341.5,361C 348.157,359.829 354.491,360.663 360.5,363.5 Z"/></g>
<g><path style="opacity:0.747" fill="#d3cfcf" d="M 421.5,362.5 C 420.443,368.51 419.276,374.51 418,380.5C 417.5,381 417,381.5 416.5,382C 402.459,382.888 388.459,382.554 374.5,381C 378.024,376.307 381.357,371.474 384.5,366.5C 384.844,371.144 383.178,375.311 379.5,379C 391.829,379.5 404.162,379.667 416.5,379.5C 417.266,374.501 418.1,369.501 419,364.5C 419.417,363.244 420.25,362.577 421.5,362.5 Z"/></g>
<g><path style="opacity:0.271" fill="#b1b1b1" d="M 67.5,369.5 C 68.1386,370.097 68.472,370.93 68.5,372C 66.5543,374.639 65.5543,377.639 65.5,381C 65.9757,385.209 66.6423,389.376 67.5,393.5C 65.0856,389.979 64.0856,385.979 64.5,381.5C 64.0856,377.021 65.0856,373.021 67.5,369.5 Z"/></g>
<g><path style="opacity:0.62" fill="#c9c7c8" d="M 330.5,366.5 C 330.143,370.24 328.81,373.573 326.5,376.5C 325.34,380.459 325.173,384.459 326,388.5C 328.357,393.786 331.523,398.452 335.5,402.5C 327.979,398.151 323.979,391.484 323.5,382.5C 323.7,376.112 326.033,370.779 330.5,366.5 Z"/></g>
<g><path style="opacity:0.075" fill="#c6c4c5" d="M 102.5,364.5 C 106.123,366.054 108.623,368.721 110,372.5C 114.398,385.166 111.231,395.333 100.5,403C 99.552,403.483 98.552,403.649 97.5,403.5C 97.5,402.5 97.5,401.5 97.5,400.5C 98.8734,400.657 100.207,400.49 101.5,400C 109.078,392.773 111.578,383.94 109,373.5C 106.945,370.3 104.779,367.3 102.5,364.5 Z"/></g>
<g><path style="opacity:0.918" fill="#dad8d9" d="M 362.5,364.5 C 370.045,370.302 372.878,377.969 371,387.5C 364.846,403.49 353.679,408.823 337.5,403.5C 342.517,404.735 347.517,404.568 352.5,403C 355.44,402.788 357.274,401.288 358,398.5C 359,398.5 360,398.5 361,398.5C 361.333,397.5 361.667,396.5 362,395.5C 362.974,397.878 363.641,397.544 364,394.5C 364.667,395.833 365.333,395.833 366,394.5C 368.877,386.992 369.21,379.326 367,371.5C 364.496,369.826 362.996,367.493 362.5,364.5 Z"/></g>
</svg>
